<svg xmlns="http://www.w3.org/2000/svg" width="900" height="1200" viewBox="0 0 900 1200">
  <defs>
    <radialGradient id="glow" cx="50%" cy="60%" r="75%">
      <stop offset="0%" stop-color="#e1551f" stop-opacity="0.55"/>
      <stop offset="38%" stop-color="#e1551f" stop-opacity="0.16"/>
      <stop offset="100%" stop-color="#e1551f" stop-opacity="0"/>
    </radialGradient>
    <linearGradient id="base" x1="0" y1="0" x2="0" y2="1">
      <stop offset="0%" stop-color="#1b1815"/>
      <stop offset="55%" stop-color="#12100e"/>
      <stop offset="100%" stop-color="#0a0807"/>
    </linearGradient>
    <filter id="grain">
      <feTurbulence type="fractalNoise" baseFrequency="0.9" numOctaves="3" stitchTiles="stitch"/>
      <feColorMatrix type="saturate" values="0"/>
      <feComponentTransfer><feFuncA type="linear" slope="0.06"/></feComponentTransfer>
    </filter>
    <filter id="soft"><feGaussianBlur stdDeviation="2.2"/></filter>
  </defs>
  <rect width="900" height="1200" fill="url(#base)"/>
  <rect width="900" height="1200" fill="url(#glow)"/>
  <g transform="translate(450, 552) scale(8.5)" opacity="0.10" filter="url(#soft)">
    <path transform="translate(-24,-24)" d="M24 11c2.6 4.2 6.4 6.2 6.4 11.2 0 2-.9 3.7-2.3 4.9.5-1.6.2-3.3-1-4.6.2 2.7-1.6 4.1-2.9 5.4-1.5 1.5-2.7 3-2.7 5.3 0 3.4 2.6 5.8 6 5.8-6.6 1.6-12-2.3-12-8.2 0-3.6 2-6.1 3.7-8.6C18.7 17 21.6 14.6 24 11Z" fill="#e1551f"/>
  </g>
  <text x="450" y="1116" text-anchor="middle" font-family="Georgia, serif" font-size="54" letter-spacing="14.4" fill="#f3ede2" fill-opacity="0.30">THE HEARTH</text>
  
  <rect width="900" height="1200" filter="url(#grain)" opacity="0.9"/>
</svg>